<svg width="133" height="43" viewBox="0 0 133 43" fill="none" xmlns="http://www.w3.org/2000/svg">
<path d="M27.4041 25.2H30.8121V38.016C29.2441 39.392 27.3881 40.448 25.2441 41.184C23.1001 41.92 20.8441 42.288 18.4761 42.288C15.1161 42.288 12.0921 41.552 9.40413 40.08C6.71613 38.608 4.60413 36.576 3.06813 33.984C1.53213 31.36 0.764127 28.432 0.764127 25.2C0.764127 21.968 1.53213 19.056 3.06813 16.464C4.60413 13.84 6.71613 11.792 9.40413 10.32C12.0921 8.848 15.1321 8.112 18.5241 8.112C21.0841 8.112 23.4361 8.528 25.5801 9.36C27.7241 10.16 29.5321 11.36 31.0041 12.96L28.7961 15.216C26.1401 12.592 22.7641 11.28 18.6681 11.28C15.9481 11.28 13.4841 11.888 11.2761 13.104C9.10013 14.288 7.38813 15.952 6.14013 18.096C4.89213 20.208 4.26813 22.576 4.26813 25.2C4.26813 27.824 4.89213 30.192 6.14013 32.304C7.38813 34.416 9.10013 36.08 11.2761 37.296C13.4521 38.512 15.9001 39.12 18.6201 39.12C22.0761 39.12 25.0041 38.256 27.4041 36.528V25.2ZM54.5931 42.288C51.2651 42.288 48.2411 41.552 45.5211 40.08C42.8331 38.576 40.7211 36.528 39.1851 33.936C37.6811 31.344 36.9291 28.432 36.9291 25.2C36.9291 21.968 37.6811 19.056 39.1851 16.464C40.7211 13.872 42.8331 11.84 45.5211 10.368C48.2411 8.864 51.2651 8.112 54.5931 8.112C57.9211 8.112 60.9131 8.848 63.5691 10.32C66.2571 11.792 68.3691 13.84 69.9051 16.464C71.4411 19.056 72.2091 21.968 72.2091 25.2C72.2091 28.432 71.4411 31.36 69.9051 33.984C68.3691 36.576 66.2571 38.608 63.5691 40.08C60.9131 41.552 57.9211 42.288 54.5931 42.288ZM54.5931 39.12C57.2491 39.12 59.6491 38.528 61.7931 37.344C63.9371 36.128 65.6171 34.464 66.8331 32.352C68.0491 30.208 68.6571 27.824 68.6571 25.2C68.6571 22.576 68.0491 20.208 66.8331 18.096C65.6171 15.952 63.9371 14.288 61.7931 13.104C59.6491 11.888 57.2491 11.28 54.5931 11.28C51.9371 11.28 49.5211 11.888 47.3451 13.104C45.2011 14.288 43.5051 15.952 42.2571 18.096C41.0411 20.208 40.4331 22.576 40.4331 25.2C40.4331 27.824 41.0411 30.208 42.2571 32.352C43.5051 34.464 45.2011 36.128 47.3451 37.344C49.5211 38.528 51.9371 39.12 54.5931 39.12ZM50.3211 4.56C49.7451 4.56 49.2491 4.368 48.8331 3.984C48.4491 3.6 48.2571 3.104 48.2571 2.496C48.2571 1.92 48.4491 1.44 48.8331 1.056C49.2491 0.639997 49.7451 0.431997 50.3211 0.431997C50.8651 0.431997 51.3451 0.639997 51.7611 1.056C52.1771 1.44 52.3851 1.92 52.3851 2.496C52.3851 3.072 52.1771 3.568 51.7611 3.984C51.3771 4.368 50.8971 4.56 50.3211 4.56ZM58.8651 4.56C58.2891 4.56 57.7931 4.368 57.3771 3.984C56.9931 3.568 56.8011 3.072 56.8011 2.496C56.8011 1.92 57.0091 1.44 57.4251 1.056C57.8411 0.639997 58.3211 0.431997 58.8651 0.431997C59.4411 0.431997 59.9211 0.639997 60.3051 1.056C60.7211 1.44 60.9291 1.92 60.9291 2.496C60.9291 3.104 60.7211 3.6 60.3051 3.984C59.9211 4.368 59.4411 4.56 58.8651 4.56ZM103.029 38.928V42H75.4769V39.552L97.7489 11.472H75.8129V8.4H102.453V10.848L80.2289 38.928H103.029ZM132.855 38.928V42H109.095V8.4H132.135V11.472H112.647V23.424H130.023V26.448H112.647V38.928H132.855Z" fill="black"/>
</svg>
