<svg width="267" height="46" viewBox="0 0 267 46" fill="none" xmlns="http://www.w3.org/2000/svg">
<path d="M24.0009 27.288H33.8409V41.496C31.8569 42.872 29.5529 43.928 26.9289 44.664C24.3049 45.4 21.7289 45.768 19.2009 45.768C15.6169 45.768 12.4009 45.032 9.55294 43.56C6.70494 42.056 4.46494 39.976 2.83294 37.32C1.23294 34.632 0.432939 31.592 0.432939 28.2C0.432939 24.808 1.23294 21.784 2.83294 19.128C4.46494 16.44 6.72094 14.36 9.60094 12.888C12.5129 11.384 15.7929 10.632 19.4409 10.632C22.7369 10.632 25.6809 11.192 28.2729 12.312C30.8969 13.4 33.0729 15 34.8009 17.112L27.5529 23.496C25.4409 21.032 22.9289 19.8 20.0169 19.8C17.5209 19.8 15.5369 20.552 14.0649 22.056C12.5929 23.56 11.8569 25.608 11.8569 28.2C11.8569 30.728 12.5769 32.76 14.0169 34.296C15.4889 35.832 17.4409 36.6 19.8729 36.6C21.3129 36.6 22.6889 36.328 24.0009 35.784V27.288ZM53.4036 45.768C49.7876 45.768 46.5396 45.016 43.6596 43.512C40.7796 42.008 38.5236 39.928 36.8916 37.272C35.2596 34.584 34.4436 31.56 34.4436 28.2C34.4436 24.84 35.2596 21.832 36.8916 19.176C38.5236 16.488 40.7796 14.392 43.6596 12.888C46.5396 11.384 49.7876 10.632 53.4036 10.632C57.0196 10.632 60.2676 11.384 63.1476 12.888C66.0276 14.392 68.2836 16.488 69.9156 19.176C71.5476 21.832 72.3636 24.84 72.3636 28.2C72.3636 31.56 71.5476 34.584 69.9156 37.272C68.2836 39.928 66.0276 42.008 63.1476 43.512C60.2676 45.016 57.0196 45.768 53.4036 45.768ZM53.4036 36.6C54.8116 36.6 56.0756 36.264 57.1956 35.592C58.3476 34.888 59.2596 33.912 59.9316 32.664C60.6036 31.384 60.9396 29.896 60.9396 28.2C60.9396 26.504 60.6036 25.032 59.9316 23.784C59.2596 22.504 58.3476 21.528 57.1956 20.856C56.0756 20.152 54.8116 19.8 53.4036 19.8C51.9956 19.8 50.7156 20.152 49.5636 20.856C48.4436 21.528 47.5476 22.504 46.8756 23.784C46.2036 25.032 45.8676 26.504 45.8676 28.2C45.8676 29.896 46.2036 31.384 46.8756 32.664C47.5476 33.912 48.4436 34.888 49.5636 35.592C50.7156 36.264 51.9956 36.6 53.4036 36.6ZM48.0756 9.048C46.8276 9.048 45.7876 8.664 44.9556 7.896C44.1556 7.096 43.7556 6.072 43.7556 4.824C43.7556 3.576 44.1556 2.552 44.9556 1.752C45.7876 0.951998 46.8276 0.551997 48.0756 0.551997C49.3236 0.551997 50.3476 0.951998 51.1476 1.752C51.9796 2.552 52.3956 3.576 52.3956 4.824C52.3956 6.072 51.9796 7.096 51.1476 7.896C50.3476 8.664 49.3236 9.048 48.0756 9.048ZM58.7316 9.048C57.4836 9.048 56.4436 8.664 55.6116 7.896C54.8116 7.096 54.4116 6.072 54.4116 4.824C54.4116 3.576 54.8116 2.552 55.6116 1.752C56.4436 0.951998 57.4836 0.551997 58.7316 0.551997C59.9796 0.551997 61.0036 0.951998 61.8036 1.752C62.6356 2.552 63.0516 3.576 63.0516 4.824C63.0516 6.072 62.6356 7.096 61.8036 7.896C61.0036 8.664 59.9796 9.048 58.7316 9.048ZM103.025 36.216V45H72.1607V38.04L87.5207 20.184H72.6407V11.4H102.257V18.36L86.8967 36.216H103.025ZM131.37 36.456V45H103.434V11.4H130.746V19.944H114.57V23.88H128.778V32.04H114.57V36.456H131.37Z" fill="black"/>
<path d="M145.379 45.768C142.595 45.768 139.875 45.464 137.219 44.856C134.595 44.216 132.435 43.368 130.739 42.312L134.387 34.056C135.987 34.984 137.779 35.736 139.763 36.312C141.747 36.856 143.651 37.128 145.475 37.128C147.043 37.128 148.163 36.984 148.835 36.696C149.507 36.376 149.843 35.912 149.843 35.304C149.843 34.6 149.395 34.072 148.499 33.72C147.635 33.368 146.195 32.984 144.179 32.568C141.587 32.024 139.427 31.448 137.699 30.84C135.971 30.2 134.467 29.176 133.187 27.768C131.907 26.328 131.267 24.392 131.267 21.96C131.267 19.848 131.859 17.928 133.043 16.2C134.227 14.472 135.987 13.112 138.323 12.12C140.691 11.128 143.555 10.632 146.915 10.632C149.219 10.632 151.475 10.888 153.683 11.4C155.923 11.88 157.891 12.6 159.587 13.56L156.179 21.768C152.883 20.104 149.763 19.272 146.819 19.272C143.907 19.272 142.451 19.976 142.451 21.384C142.451 22.056 142.883 22.568 143.747 22.92C144.611 23.24 146.035 23.592 148.019 23.976C150.579 24.456 152.739 25.016 154.499 25.656C156.259 26.264 157.779 27.272 159.059 28.68C160.371 30.088 161.027 32.008 161.027 34.44C161.027 36.552 160.435 38.472 159.251 40.2C158.067 41.896 156.291 43.256 153.923 44.28C151.587 45.272 148.739 45.768 145.379 45.768ZM194.638 11.4V45H183.31V32.616H172.846V45H161.518V11.4H172.846V23.304H183.31V11.4H194.638ZM214.832 45.768C211.216 45.768 207.968 45.016 205.088 43.512C202.208 42.008 199.952 39.928 198.32 37.272C196.688 34.584 195.872 31.56 195.872 28.2C195.872 24.84 196.688 21.832 198.32 19.176C199.952 16.488 202.208 14.392 205.088 12.888C207.968 11.384 211.216 10.632 214.832 10.632C218.448 10.632 221.696 11.384 224.576 12.888C227.456 14.392 229.712 16.488 231.344 19.176C232.976 21.832 233.792 24.84 233.792 28.2C233.792 31.56 232.976 34.584 231.344 37.272C229.712 39.928 227.456 42.008 224.576 43.512C221.696 45.016 218.448 45.768 214.832 45.768ZM214.832 36.6C216.24 36.6 217.504 36.264 218.624 35.592C219.776 34.888 220.688 33.912 221.36 32.664C222.032 31.384 222.368 29.896 222.368 28.2C222.368 26.504 222.032 25.032 221.36 23.784C220.688 22.504 219.776 21.528 218.624 20.856C217.504 20.152 216.24 19.8 214.832 19.8C213.424 19.8 212.144 20.152 210.992 20.856C209.872 21.528 208.976 22.504 208.304 23.784C207.632 25.032 207.296 26.504 207.296 28.2C207.296 29.896 207.632 31.384 208.304 32.664C208.976 33.912 209.872 34.888 210.992 35.592C212.144 36.264 213.424 36.6 214.832 36.6ZM251.199 11.4C254.303 11.4 257.007 11.912 259.311 12.936C261.615 13.96 263.391 15.432 264.639 17.352C265.887 19.272 266.511 21.512 266.511 24.072C266.511 26.632 265.887 28.872 264.639 30.792C263.391 32.712 261.615 34.184 259.311 35.208C257.007 36.232 254.303 36.744 251.199 36.744H246.351V45H235.023V11.4H251.199ZM250.479 28.008C252.015 28.008 253.167 27.672 253.935 27C254.703 26.296 255.087 25.32 255.087 24.072C255.087 22.824 254.703 21.864 253.935 21.192C253.167 20.488 252.015 20.136 250.479 20.136H246.351V28.008H250.479Z" fill="#DC143C"/>
</svg>
