<svg width="102" height="102" viewBox="0 0 102 102" fill="none" xmlns="http://www.w3.org/2000/svg">
<circle cx="51" cy="51" r="51" fill="black"/>
<path d="M68.28 51.176H75.096V76.808C71.96 79.56 68.248 81.672 63.96 83.144C59.672 84.616 55.16 85.352 50.424 85.352C43.704 85.352 37.656 83.88 32.28 80.936C26.904 77.992 22.68 73.928 19.608 68.744C16.536 63.496 15 57.64 15 51.176C15 44.712 16.536 38.888 19.608 33.704C22.68 28.456 26.904 24.36 32.28 21.416C37.656 18.472 43.736 17 50.52 17C55.64 17 60.344 17.832 64.632 19.496C68.92 21.096 72.536 23.496 75.48 26.696L71.064 31.208C65.752 25.96 59 23.336 50.808 23.336C45.368 23.336 40.44 24.552 36.024 26.984C31.672 29.352 28.248 32.68 25.752 36.968C23.256 41.192 22.008 45.928 22.008 51.176C22.008 56.424 23.256 61.16 25.752 65.384C28.248 69.608 31.672 72.936 36.024 75.368C40.376 77.8 45.272 79.016 50.712 79.016C57.624 79.016 63.48 77.288 68.28 73.832V51.176Z" fill="white"/>
<path d="M53.4049 46.848C52.7809 46.848 52.1809 46.748 51.6049 46.548C51.0369 46.348 50.5969 46.084 50.2849 45.756L50.6329 45.072C50.9369 45.376 51.3409 45.624 51.8449 45.816C52.3489 46 52.8689 46.092 53.4049 46.092C54.1569 46.092 54.7209 45.956 55.0969 45.684C55.4729 45.404 55.6609 45.044 55.6609 44.604C55.6609 44.268 55.5569 44 55.3489 43.8C55.1489 43.6 54.9009 43.448 54.6049 43.344C54.3089 43.232 53.8969 43.112 53.3689 42.984C52.7369 42.824 52.2329 42.672 51.8569 42.528C51.4809 42.376 51.1569 42.148 50.8849 41.844C50.6209 41.54 50.4889 41.128 50.4889 40.608C50.4889 40.184 50.6009 39.8 50.8249 39.456C51.0489 39.104 51.3929 38.824 51.8569 38.616C52.3209 38.408 52.8969 38.304 53.5849 38.304C54.0649 38.304 54.5329 38.372 54.9889 38.508C55.4529 38.636 55.8529 38.816 56.1889 39.048L55.8889 39.756C55.5369 39.524 55.1609 39.352 54.7609 39.24C54.3609 39.12 53.9689 39.06 53.5849 39.06C52.8489 39.06 52.2929 39.204 51.9169 39.492C51.5489 39.772 51.3649 40.136 51.3649 40.584C51.3649 40.92 51.4649 41.192 51.6649 41.4C51.8729 41.6 52.1289 41.756 52.4329 41.868C52.7449 41.972 53.1609 42.088 53.6809 42.216C54.2969 42.368 54.7929 42.52 55.1689 42.672C55.5529 42.816 55.8769 43.04 56.1409 43.344C56.4049 43.64 56.5369 44.044 56.5369 44.556C56.5369 44.98 56.4209 45.368 56.1889 45.72C55.9649 46.064 55.6169 46.34 55.1449 46.548C54.6729 46.748 54.0929 46.848 53.4049 46.848ZM65.4917 38.376V46.776H64.6157V42.9H59.3597V46.776H58.4717V38.376H59.3597V42.12H64.6157V38.376H65.4917ZM71.9054 46.848C71.0734 46.848 70.3174 46.664 69.6374 46.296C68.9654 45.92 68.4374 45.408 68.0534 44.76C67.6774 44.112 67.4894 43.384 67.4894 42.576C67.4894 41.768 67.6774 41.04 68.0534 40.392C68.4374 39.744 68.9654 39.236 69.6374 38.868C70.3174 38.492 71.0734 38.304 71.9054 38.304C72.7374 38.304 73.4854 38.488 74.1494 38.856C74.8214 39.224 75.3494 39.736 75.7334 40.392C76.1174 41.04 76.3094 41.768 76.3094 42.576C76.3094 43.384 76.1174 44.116 75.7334 44.772C75.3494 45.42 74.8214 45.928 74.1494 46.296C73.4854 46.664 72.7374 46.848 71.9054 46.848ZM71.9054 46.056C72.5694 46.056 73.1694 45.908 73.7054 45.612C74.2414 45.308 74.6614 44.892 74.9654 44.364C75.2694 43.828 75.4214 43.232 75.4214 42.576C75.4214 41.92 75.2694 41.328 74.9654 40.8C74.6614 40.264 74.2414 39.848 73.7054 39.552C73.1694 39.248 72.5694 39.096 71.9054 39.096C71.2414 39.096 70.6374 39.248 70.0934 39.552C69.5574 39.848 69.1334 40.264 68.8214 40.8C68.5174 41.328 68.3654 41.92 68.3654 42.576C68.3654 43.232 68.5174 43.828 68.8214 44.364C69.1334 44.892 69.5574 45.308 70.0934 45.612C70.6374 45.908 71.2414 46.056 71.9054 46.056ZM81.4438 38.376C82.5158 38.376 83.3558 38.632 83.9638 39.144C84.5718 39.656 84.8758 40.36 84.8758 41.256C84.8758 42.152 84.5718 42.856 83.9638 43.368C83.3558 43.872 82.5158 44.124 81.4438 44.124H79.1878V46.776H78.2998V38.376H81.4438ZM81.4198 43.344C82.2518 43.344 82.8878 43.164 83.3278 42.804C83.7678 42.436 83.9878 41.92 83.9878 41.256C83.9878 40.576 83.7678 40.056 83.3278 39.696C82.8878 39.328 82.2518 39.144 81.4198 39.144H79.1878V43.344H81.4198Z" fill="white"/>
</svg>
